<svg width="40" height="40" viewBox="0 0 40 40" fill="none" xmlns="http://www.w3.org/2000/svg">
<mask id="mask0_293_182" style="mask-type:luminance" maskUnits="userSpaceOnUse" x="0" y="0" width="40" height="40">
<path d="M38.4373 0H1.56267C0.69963 0 0 0.69963 0 1.56267V38.4373C0 39.3004 0.69963 40 1.56267 40H38.4373C39.3004 40 40 39.3004 40 38.4373V1.56267C40 0.69963 39.3004 0 38.4373 0Z" fill="white"/>
</mask>
<g mask="url(#mask0_293_182)">
<path d="M15.2847 39.44C14.6247 39.284 14.0734 38.918 13.3007 38.126C12.0107 36.802 10.9634 36.2513 9.14337 35.938C7.25603 35.6127 6.4167 34.9113 5.9127 33.2353C5.29003 31.166 4.63937 30.1753 3.20937 29.1193C1.58737 27.9213 1.17137 26.8653 1.56737 24.9507C1.93403 23.1773 1.79403 21.9173 1.0487 20.296C0.160701 18.3627 0.270034 17.3293 1.53203 15.7447C2.6887 14.2913 3.05203 13.3313 3.22537 11.2673C3.40003 9.18401 3.98003 8.32934 5.6867 7.63734C7.11203 7.06001 8.3307 6.05734 9.0067 4.90801C9.78803 3.57801 9.90203 3.42601 10.386 3.06467C11.1674 2.48201 11.7994 2.32001 13.002 2.39534C15.092 2.52667 16.212 2.27534 17.6154 1.36201C19.4454 0.170673 20.5547 0.170673 22.3847 1.36201C23.788 2.27534 24.908 2.52667 26.998 2.39534C28.974 2.27201 29.796 2.79067 31.0007 4.92134C31.598 5.97734 32.818 7.00467 34.154 7.57601C36.0554 8.39001 36.6087 9.13334 36.7487 11.064C36.9007 13.1547 37.3294 14.324 38.4654 15.744C39.73 17.326 39.84 18.3607 38.9507 20.296C38.206 21.9173 38.066 23.178 38.4327 24.9507C38.828 26.8653 38.4127 27.9213 36.79 29.1193C35.3607 30.1753 34.71 31.166 34.0874 33.2353C33.5827 34.9113 32.744 35.6127 30.856 35.938C29.0327 36.2513 27.984 36.8047 26.6994 38.13C25.2747 39.5993 24.2527 39.8413 22.2614 39.1833C20.6327 38.6447 19.378 38.6427 17.7554 39.1747C16.6194 39.548 16.0134 39.6127 15.2847 39.44Z" fill="white"/>
<path d="M30.0613 33.2266C30.1029 33.3568 30.0944 33.4978 30.0374 33.6221C29.9804 33.7463 29.8791 33.8448 29.7533 33.8982C29.6275 33.9517 29.4863 33.9562 29.3573 33.9109C29.2284 33.8656 29.121 33.7737 29.0562 33.6534L27.7354 31.2007C27.6818 31.1019 27.6495 30.9929 27.6405 30.8808C27.6315 30.7687 27.6461 30.656 27.6832 30.5499C27.7203 30.4437 27.7792 30.3465 27.8561 30.2645C27.933 30.1824 28.0262 30.1174 28.1297 30.0734C28.2332 30.0295 28.3447 30.0077 28.4571 30.0094C28.5696 30.0111 28.6804 30.0362 28.7825 30.0833C28.8847 30.1303 28.9759 30.1982 29.0502 30.2825C29.1246 30.3668 29.1806 30.4658 29.2145 30.573L30.0613 33.2266Z" fill="#034ECA"/>
<path d="M30.0613 33.2266C30.1029 33.3568 30.0944 33.4978 30.0374 33.6221C29.9804 33.7463 29.8791 33.8448 29.7533 33.8982C29.6275 33.9517 29.4863 33.9562 29.3573 33.9109C29.2284 33.8656 29.121 33.7737 29.0562 33.6534L27.7354 31.2007C27.6818 31.1019 27.6495 30.9929 27.6405 30.8808C27.6315 30.7687 27.6461 30.656 27.6832 30.5499C27.7203 30.4437 27.7792 30.3465 27.8561 30.2645C27.933 30.1824 28.0262 30.1174 28.1297 30.0734C28.2332 30.0295 28.3447 30.0077 28.4571 30.0094C28.5696 30.0111 28.6804 30.0362 28.7825 30.0833C28.8847 30.1303 28.9759 30.1982 29.0502 30.2825C29.1246 30.3668 29.1806 30.4658 29.2145 30.573L30.0613 33.2266Z" fill="url(#paint0_linear_293_182)"/>
<mask id="mask1_293_182" style="mask-type:alpha" maskUnits="userSpaceOnUse" x="25" y="15" width="9" height="10">
<path d="M29.0291 24.4258C29.526 24.1013 29.9562 23.6848 30.2966 23.1987C30.6535 22.6919 30.9064 22.1193 31.0407 21.5141L31.0504 21.5156L31.6054 21.6206C31.9154 21.679 32.2255 21.7372 32.5355 21.7954C32.6007 21.807 32.6677 21.8036 32.7314 21.7854C32.7951 21.7672 32.8538 21.7347 32.903 21.6904C32.9801 21.6212 33.0292 21.5262 33.0412 21.4233C33.0533 21.3204 33.0273 21.2167 32.9683 21.1316C32.9366 21.0852 32.8962 21.0455 32.8492 21.0147C32.8022 20.984 32.7497 20.9628 32.6945 20.9523C32.5648 20.928 32.435 20.9037 32.3052 20.8796L31.7645 20.7776L31.2094 20.6726L31.1494 20.6621L31.1509 20.6156C31.1647 20.0451 31.074 19.477 30.8832 18.9392L30.8667 18.8942C30.6729 18.3613 30.384 17.868 30.0139 17.4384C30.0266 17.4234 30.0386 17.4084 30.0514 17.3949L30.4174 16.9659L30.7744 16.5474L31.0309 16.2466C31.1042 16.1599 31.1406 16.0478 31.1322 15.9346C31.1279 15.8854 31.1155 15.8372 31.0954 15.7921C31.0592 15.7114 30.9989 15.644 30.9227 15.5991C30.8465 15.5542 30.7582 15.5341 30.6701 15.5416C30.5568 15.5504 30.4517 15.6038 30.3776 15.6901L30.1211 15.9908L29.7641 16.4101L29.3981 16.8384L29.3943 16.8421C28.5992 16.2059 27.6197 15.8436 26.6019 15.8093C26.1913 15.7964 25.7808 15.8375 25.3809 15.9316L28.489 24.7288C28.6743 24.6388 28.8558 24.5383 29.0291 24.4258Z" fill="white"/>
</mask>
<g mask="url(#mask1_293_182)">
<path d="M33.7731 22.9211L30.4579 13.5261L25.1724 15.3915L28.4875 24.7857L33.7731 22.9211Z" fill="#4FAF53"/>
<g opacity="0.8" filter="url(#filter0_f_293_182)">
<path d="M30.6206 19.3933C30.2921 20.5559 29.2953 17.9608 27.5027 17.4552C25.7101 16.949 23.5042 18.6403 23.832 17.4777C24.417 16.6242 25.9861 15.9724 27.7787 16.4787C29.5713 16.9842 30.6363 18.4993 30.6206 19.3933Z" fill="url(#paint1_linear_293_182)" fill-opacity="0.3"/>
</g>
<g opacity="0.7" filter="url(#filter1_f_293_182)">
<path d="M30.3949 18.7539C29.4093 18.0542 30.2621 20.7003 29.1843 22.2191C28.1058 23.738 25.3269 23.8062 26.3117 24.506C27.3032 24.8023 28.9338 24.326 30.0116 22.8072C31.0894 21.2883 30.9687 19.4395 30.3949 18.7539Z" fill="url(#paint2_linear_293_182)" fill-opacity="0.4"/>
</g>
<g opacity="0.6" filter="url(#filter2_f_293_182)">
<path d="M26.5638 15.3813C25.3127 15.4203 24.3017 15.5703 24.3062 15.715C24.3107 15.8606 25.3292 15.9461 26.5803 15.9063C27.8314 15.8673 29.579 16.9099 29.5745 16.7644C29.57 16.6196 27.8149 15.3415 26.5638 15.3813Z" fill="#8BD8A0"/>
</g>
<g opacity="0.5" filter="url(#filter3_f_293_182)">
<path d="M29.7358 24.3672C28.736 25.1217 27.8555 25.6393 27.7677 25.5238C27.6807 25.4075 28.4195 24.7025 29.4178 23.9472C30.4168 23.1926 31.1234 21.2845 31.2104 21.4C31.2981 21.5163 30.7341 23.6127 29.7351 24.3672H29.7358Z" fill="#8BD8A0"/>
</g>
<g opacity="0.7" filter="url(#filter4_f_293_182)">
<path d="M30.1971 16.114C29.7396 16.6736 29.5176 16.9263 29.4681 16.8866C29.4186 16.8453 29.5611 16.5266 30.0178 15.9678C30.2991 15.2665 31.1354 15.6078 31.1849 15.6483C31.2344 15.6888 30.7821 15.316 30.1971 16.114Z" fill="#0D652D"/>
</g>
<g opacity="0.1" filter="url(#filter5_f_293_182)">
<path d="M29.3807 16.8394C29.4234 16.8716 29.7617 16.5011 30.136 16.0106C30.511 15.5208 30.7795 15.097 30.7368 15.0648C30.694 15.0318 30.3557 15.4023 29.9815 15.8928C29.6065 16.3834 29.3379 16.8064 29.3807 16.8394Z" fill="black"/>
</g>
<g opacity="0.3" filter="url(#filter6_f_293_182)">
<path d="M30.6484 16.4517C30.1706 17.0367 29.9554 17.3157 29.9951 17.348C30.0349 17.3802 30.3139 17.1537 30.7917 16.5679C31.4787 15.9244 30.7662 15.4511 30.7002 15.5464C30.5052 15.7542 31.3339 15.6769 30.6484 16.4517Z" fill="white"/>
</g>
<path opacity="0.15" d="M30.4294 15.16C30.2224 15.3085 30.1954 15.6265 30.3694 15.8703C30.5449 16.1148 30.8539 16.1928 31.0617 16.0435C31.2687 15.895 31.2957 15.577 31.1217 15.3332C30.9462 15.0895 30.6371 15.0122 30.4294 15.1607V15.16Z" fill="url(#paint3_radial_293_182)" fill-opacity="0.9"/>
<path opacity="0.15" d="M32.4795 20.7552C32.2725 20.9037 32.2455 21.2217 32.4203 21.4655C32.5951 21.71 32.9041 21.788 33.1118 21.6387C33.3188 21.491 33.3458 21.173 33.1718 20.9285C32.9971 20.6847 32.6873 20.6067 32.4795 20.7552Z" fill="url(#paint4_radial_293_182)" fill-opacity="0.9"/>
<g opacity="0.1" filter="url(#filter7_f_293_182)">
<path d="M30.9909 21.5008C31.0029 21.4483 31.501 21.5173 32.1018 21.6538C32.7033 21.7903 33.1818 21.944 33.1691 21.9958C33.1571 22.0483 32.6605 21.98 32.059 21.8435C31.4575 21.7063 30.9789 21.5533 30.9909 21.5008Z" fill="black"/>
</g>
<mask id="mask2_293_182" style="mask-type:alpha" maskUnits="userSpaceOnUse" x="31" y="20" width="1" height="3">
<path d="M31.0069 21.5713C31.0631 21.3162 31.1186 20.762 31.1389 20.5167L31.6842 20.4814L31.6167 22.0445C31.3901 21.9928 30.9506 21.8255 31.0069 21.5713Z" fill="black"/>
</mask>
<g mask="url(#mask2_293_182)">
<g style="mix-blend-mode:multiply" opacity="0.3" filter="url(#filter8_f_293_182)">
<path d="M31.1306 21.6827C31.1576 21.2552 31.1351 20.9049 31.0819 20.9011C31.0279 20.8981 30.9971 21.2274 30.9709 21.6557C30.9446 22.084 30.9333 22.45 30.9874 22.453C31.0406 22.456 31.1051 22.1117 31.1314 21.6827H31.1306Z" fill="#0D652D"/>
</g>
<g style="mix-blend-mode:screen" opacity="0.3" filter="url(#filter9_f_293_182)">
<path d="M31.1595 20.8152C31.1745 20.6937 31.167 20.5924 31.143 20.5902C31.119 20.5864 31.1025 20.6802 31.0882 20.8017C31.074 20.924 31.0665 21.0282 31.0905 21.0312C31.1145 21.0335 31.1452 20.9375 31.1595 20.8152Z" fill="#81C995"/>
</g>
</g>
<mask id="mask3_293_182" style="mask-type:alpha" maskUnits="userSpaceOnUse" x="29" y="16" width="2" height="2">
<path d="M29.2692 16.7763C29.4755 16.9338 29.8753 17.3238 30.0493 17.4978L30.4881 17.1745L29.4305 16.0217C29.291 16.207 29.0622 16.6173 29.2692 16.7763Z" fill="black"/>
</mask>
<g mask="url(#mask3_293_182)">
<g style="mix-blend-mode:multiply" opacity="0.3" filter="url(#filter10_f_293_182)">
<path d="M29.2914 16.6105C29.5877 16.9218 29.7954 17.203 29.7564 17.2405C29.7182 17.278 29.4819 17.0455 29.1864 16.7343C28.8909 16.423 28.6464 16.1507 28.6861 16.114C28.7251 16.0765 28.9959 16.2992 29.2914 16.6105Z" fill="#0D652D"/>
</g>
<g style="mix-blend-mode:screen" opacity="0.3" filter="url(#filter11_f_293_182)">
<path d="M29.8723 17.256C29.9616 17.34 30.0208 17.4225 30.0043 17.4398C29.9878 17.457 29.9158 17.3963 29.8266 17.3123C29.7366 17.2283 29.6638 17.1533 29.6803 17.1353C29.6968 17.118 29.7831 17.1728 29.8723 17.256Z" fill="#81C995"/>
</g>
</g>
<g opacity="0.7" filter="url(#filter12_f_293_182)">
<path d="M32.1034 21.5968C31.3932 21.4648 31.0601 21.4153 31.0481 21.4776C31.0369 21.5406 31.3512 21.6921 32.0607 21.8241C32.7282 22.1781 33.1468 21.3778 33.1588 21.3141C33.1708 21.2518 33.065 21.8293 32.1034 21.5968Z" fill="#0D652D"/>
</g>
<g opacity="0.3" filter="url(#filter13_f_293_182)">
<path d="M32.2265 21.0284C31.5042 20.8934 31.1689 20.8206 31.1794 20.7674C31.1892 20.7149 31.5395 20.7029 32.2625 20.8371C33.4446 20.8641 33.5826 21.6959 32.9675 21.7687C32.6975 21.7499 33.2233 21.1701 32.2265 21.0284Z" fill="white"/>
</g>
</g>
<path d="M28.0003 17.7303C27.9418 17.8743 27.9575 18.0183 28.0378 18.0505C28.1165 18.0828 28.229 17.992 28.2883 17.848C28.3468 17.7033 28.3303 17.56 28.2508 17.527C28.172 17.4948 28.0595 17.5863 28.0003 17.7303Z" fill="url(#paint5_radial_293_182)" fill-opacity="0.7"/>
<path d="M29.3884 21.6798C29.2519 21.6048 29.1747 21.4826 29.2159 21.4076C29.2572 21.3326 29.4019 21.3326 29.5385 21.4076C29.675 21.4826 29.7522 21.6048 29.711 21.6798C29.6697 21.7548 29.525 21.7548 29.3884 21.6798Z" fill="url(#paint6_radial_293_182)" fill-opacity="0.7"/>
<g style="mix-blend-mode:multiply" opacity="0.09" filter="url(#filter14_f_293_182)">
<path d="M27.6191 18.1494C27.9941 18.1659 28.1494 17.9544 28.1794 17.8464C28.3992 17.4893 28.0429 17.2388 27.8764 17.1856C27.7099 17.1316 27.4279 17.0678 27.1601 17.3213C26.8931 17.5748 27.1504 18.1284 27.6191 18.1494Z" fill="#011B04"/>
</g>
<g style="mix-blend-mode:multiply" opacity="0.09" filter="url(#filter15_f_293_182)">
<path d="M28.8288 21.5937C29.1086 21.3462 29.3613 21.4137 29.4521 21.4782C29.8451 21.6192 29.7266 22.037 29.6313 22.1832C29.5361 22.3295 29.3576 22.5552 28.9916 22.5252C28.6263 22.4952 28.4793 21.9027 28.8288 21.5937Z" fill="#011B04"/>
</g>
<path d="M28.8874 22.4164C29.0974 22.5739 29.4229 22.4967 29.6134 22.2439C29.8039 21.9904 29.7874 21.6574 29.5774 21.4991C29.3674 21.3416 29.0419 21.4189 28.8514 21.6716C28.6609 21.9252 28.6766 22.2582 28.8874 22.4164Z" fill="black"/>
<g filter="url(#filter16_d_293_182)">
<path d="M27.5919 18.0708C27.8994 18.1488 28.1994 18.0108 28.2624 17.761C28.3254 17.512 28.1274 17.2472 27.8199 17.17C27.5124 17.092 27.2124 17.23 27.1494 17.4797C27.0864 17.7288 27.2844 17.9935 27.5919 18.0708Z" fill="black"/>
</g>
<g filter="url(#filter17_d_293_182)">
<path d="M28.858 21.6695C29.0478 21.416 29.3688 21.3357 29.5743 21.4902C29.7798 21.6447 29.7918 21.9748 29.6013 22.2275C29.4108 22.481 29.0898 22.5613 28.8843 22.4075C28.6788 22.253 28.6675 21.9223 28.858 21.6695Z" fill="black"/>
</g>
<mask id="mask4_293_182" style="mask-type:alpha" maskUnits="userSpaceOnUse" x="27" y="17" width="2" height="2">
<path d="M27.5919 18.0706C27.8994 18.1486 28.1994 18.0099 28.2624 17.7609C28.3254 17.5118 28.1274 17.2471 27.8199 17.1691C27.5124 17.0918 27.2124 17.2306 27.1494 17.4796C27.0864 17.7286 27.2844 17.9934 27.5919 18.0706Z" fill="#202124"/>
</mask>
<g mask="url(#mask4_293_182)">
<g filter="url(#filter18_f_293_182)">
<path d="M27.8538 17.224C27.604 17.134 27.3715 17.1963 27.2822 17.2495C27.4555 17.143 27.6452 17.092 27.8838 17.1805C28.0173 17.2368 28.129 17.3347 28.2025 17.4595C28.216 17.482 28.2265 17.5 28.2325 17.5135L28.2025 17.4595C28.1944 17.4468 28.1859 17.4343 28.177 17.422C28.132 17.3643 28.0473 17.2938 27.8538 17.224Z" fill="#D8D8D8" fill-opacity="0.29"/>
</g>
<g opacity="0.8" filter="url(#filter19_f_293_182)">
<path d="M28.0583 17.9552C28.3096 17.7924 28.2594 17.5584 28.2031 17.4617C28.2736 17.5374 28.2804 17.7159 28.2264 17.8112C28.1857 17.8746 28.1272 17.9247 28.0583 17.9552Z" fill="url(#paint7_linear_293_182)"/>
</g>
</g>
<mask id="mask5_293_182" style="mask-type:alpha" maskUnits="userSpaceOnUse" x="28" y="21" width="2" height="2">
<path d="M28.8583 21.6695C29.0488 21.416 29.3698 21.3357 29.5753 21.4902C29.7808 21.6447 29.7928 21.9748 29.6023 22.2275C29.4118 22.481 29.0908 22.5613 28.8853 22.4075C28.6798 22.253 28.6678 21.9223 28.8583 21.6695Z" fill="#202124"/>
</mask>
<g mask="url(#mask5_293_182)">
<path d="M29.6381 21.6875C29.6089 21.6084 29.5522 21.5426 29.4783 21.5021C29.4044 21.4615 29.3184 21.4491 29.2361 21.4669C29.2959 21.4733 29.3533 21.4935 29.404 21.5259C29.4546 21.5583 29.497 21.6021 29.5278 21.6537C29.6074 21.7925 29.5061 22.0505 29.4453 22.1615L29.5549 22.2065C29.6143 22.1356 29.6534 22.0498 29.668 21.9584C29.6825 21.867 29.6727 21.7733 29.6381 21.6875Z" fill="url(#paint8_linear_293_182)"/>
<g filter="url(#filter20_f_293_182)">
<path d="M29.5916 22.1654C29.4536 22.3927 29.2339 22.4902 29.1304 22.5044C29.3329 22.4782 29.5114 22.3994 29.6419 22.1811C29.7106 22.0534 29.7361 21.9068 29.7147 21.7634C29.7124 21.7432 29.7089 21.7231 29.7042 21.7034C29.7064 21.7206 29.7117 21.7401 29.7147 21.7634L29.7192 21.8084C29.7207 21.8819 29.6989 21.9899 29.5916 22.1654Z" fill="#D8D8D8" fill-opacity="0.29"/>
</g>
</g>
<g opacity="0.8" filter="url(#filter21_f_293_182)">
<path d="M28.0031 17.4068C27.9514 17.3213 27.8306 17.2868 27.7766 17.2793L27.7241 17.3498C27.7644 17.3564 27.8036 17.3688 27.8404 17.3866C27.8899 17.4106 27.9491 17.4518 27.9731 17.4691L28.0031 17.4068Z" fill="#E2DCE1"/>
</g>
<g opacity="0.8" filter="url(#filter22_f_293_182)">
<path d="M29.5939 21.9336C29.6089 22.0311 29.5399 22.1316 29.5039 22.1706L29.4214 22.1481C29.4476 22.1181 29.4693 22.0845 29.4859 22.0483C29.5084 21.9996 29.5271 21.9313 29.5339 21.9036L29.5939 21.9336Z" fill="#E2DCE1"/>
</g>
<g opacity="0.8" filter="url(#filter23_f_293_182)">
<path d="M27.638 17.9605C27.5969 17.9231 27.5574 17.884 27.5194 17.8435H27.4294C27.464 17.8891 27.508 17.9267 27.5585 17.9538L27.638 17.9605ZM28.0355 17.9755C28.0567 17.9601 28.0765 17.9427 28.0947 17.9238L28.0632 17.935C28.0403 17.9575 28.0146 17.9769 27.9867 17.9928C27.9942 17.9928 28.0152 17.989 28.0355 17.9755Z" fill="#E2DCE1"/>
</g>
<g opacity="0.8" filter="url(#filter24_f_293_182)">
<path d="M28.9571 21.7225C28.9481 21.775 28.9406 21.8553 28.9384 21.8883L28.8686 21.9445C28.8668 21.8875 28.8773 21.8307 28.8994 21.778L28.9571 21.7225ZM29.2571 21.4615C29.2834 21.4602 29.3098 21.4612 29.3359 21.4645L29.3051 21.4757C29.2731 21.4725 29.2409 21.4735 29.2091 21.4787C29.2234 21.4689 29.2399 21.463 29.2571 21.4615Z" fill="#E2DCE1"/>
</g>
<g opacity="0.3" filter="url(#filter25_f_293_182)">
<path d="M29.8121 23.0546C28.6721 23.4566 30.2186 21.1465 29.5991 19.3899C28.9796 17.6333 26.3259 16.8052 27.4652 16.4032C28.4995 16.3897 29.9359 17.2958 30.5554 19.0524C31.1757 20.8082 30.5509 22.5521 29.8121 23.0546Z" fill="url(#paint9_linear_293_182)" fill-opacity="0.4"/>
</g>
<g opacity="0.2" filter="url(#filter26_f_293_182)">
<path d="M29.8121 23.0546C28.6721 23.4566 30.2186 21.1465 29.5991 19.3899C28.9796 17.6333 26.3259 16.8052 27.4652 16.4032C28.4995 16.3897 29.9359 17.2958 30.5554 19.0524C31.1757 20.8082 30.5509 22.5521 29.8121 23.0546Z" fill="url(#paint10_linear_293_182)" fill-opacity="0.4"/>
</g>
<path d="M10.7792 18.2846C10.6552 18.0689 10.488 17.8812 10.2881 17.7332C10.0882 17.5851 9.85985 17.48 9.61739 17.4243C9.10605 17.3062 8.56894 17.3854 8.11356 17.6463C7.65078 17.9088 7.30427 18.3311 7.14976 18.8216C6.99525 19.3114 7.0875 19.904 7.33127 20.3345L9.11486 19.4142L10.7792 18.2846Z" fill="#4386F5"/>
<path fill-rule="evenodd" clip-rule="evenodd" d="M10.7633 18.2583C13.3434 22.5305 18.7467 24.3591 23.469 22.3415L25.0455 26.0295C18.4587 28.8444 10.9298 26.292 7.32959 20.3322L10.7633 18.2583Z" fill="url(#paint11_linear_293_182)"/>
<path d="M10.0087 33.2269C9.96708 33.3571 9.97559 33.4982 10.0326 33.6224C10.0895 33.7467 10.1908 33.8451 10.3167 33.8986C10.4425 33.952 10.5837 33.9565 10.7126 33.9112C10.8416 33.8659 10.949 33.7741 11.0138 33.6537L12.3338 31.2011C12.388 31.1022 12.4208 30.9931 12.4302 30.8807C12.4396 30.7684 12.4254 30.6553 12.3884 30.5488C12.3515 30.4423 12.2926 30.3447 12.2156 30.2623C12.1386 30.1799 12.0452 30.1146 11.9415 30.0706C11.8377 30.0265 11.7258 30.0046 11.6131 30.0065C11.5004 30.0083 11.3893 30.0337 11.287 30.081C11.1846 30.1284 11.0934 30.1967 11.0191 30.2814C10.9448 30.3662 10.889 30.4656 10.8555 30.5733L10.0087 33.2269Z" fill="#034ECA"/>
<path d="M10.0087 33.2269C9.96708 33.3571 9.97559 33.4982 10.0326 33.6224C10.0895 33.7467 10.1908 33.8451 10.3167 33.8986C10.4425 33.952 10.5837 33.9565 10.7126 33.9112C10.8416 33.8659 10.949 33.7741 11.0138 33.6537L12.3338 31.2011C12.388 31.1022 12.4208 30.9931 12.4302 30.8807C12.4396 30.7684 12.4254 30.6553 12.3884 30.5488C12.3515 30.4423 12.2926 30.3447 12.2156 30.2623C12.1386 30.1799 12.0452 30.1146 11.9415 30.0706C11.8377 30.0265 11.7258 30.0046 11.6131 30.0065C11.5004 30.0083 11.3893 30.0337 11.287 30.081C11.1846 30.1284 11.0934 30.1967 11.0191 30.2814C10.9448 30.3662 10.889 30.4656 10.8555 30.5733L10.0087 33.2269Z" fill="url(#paint12_linear_293_182)"/>
<path d="M16.7479 10.1078C16.9539 9.54197 17.3763 9.08114 17.922 8.82668C18.4678 8.57223 19.0923 8.545 19.6581 8.75099C20.2239 8.95697 20.6848 9.3793 20.9392 9.92506C21.1937 10.4708 21.2209 11.0953 21.0149 11.6611L14.3516 29.9696C14.2496 30.2498 14.0935 30.5072 13.8921 30.7271C13.6906 30.947 13.4479 31.1251 13.1777 31.2511C12.9074 31.3772 12.615 31.4488 12.3171 31.4618C12.0192 31.4749 11.7216 31.4291 11.4414 31.3272C11.1612 31.2253 10.9038 31.0691 10.6839 30.8677C10.464 30.6663 10.286 30.4235 10.1599 30.1533C10.0339 29.883 9.96225 29.5906 9.9492 29.2927C9.93615 28.9948 9.9819 28.6973 10.0838 28.417L16.7472 10.1086L16.7479 10.1078Z" fill="#4285F4"/>
<path d="M12.0474 31.4525C12.5484 31.5032 13.052 31.3855 13.4785 31.1179C13.9051 30.8503 14.2302 30.4481 14.4025 29.9749L19.8148 15.1031C19.9673 14.6843 19.9928 14.2298 19.8881 13.7965C19.7833 13.3633 19.553 12.9706 19.226 12.6677L12.0474 31.4525Z" fill="url(#paint13_linear_293_182)"/>
<path d="M21.4643 5.97508C21.4643 5.59623 21.3138 5.2329 21.0459 4.96501C20.7781 4.69713 20.4147 4.54663 20.0359 4.54663C19.657 4.54663 19.2937 4.69713 19.0258 4.96501C18.7579 5.2329 18.6074 5.59623 18.6074 5.97508V8.68498C18.6074 9.06383 18.7579 9.42716 19.0258 9.69505C19.2937 9.96293 19.657 10.1134 20.0359 10.1134C20.4147 10.1134 20.7781 9.96293 21.0459 9.69505C21.3138 9.42716 21.4643 9.06383 21.4643 8.68498V5.97508Z" fill="#4285F4"/>
<path d="M21.4643 5.97508C21.4643 5.59623 21.3138 5.2329 21.0459 4.96501C20.7781 4.69713 20.4147 4.54663 20.0359 4.54663C19.657 4.54663 19.2937 4.69713 19.0258 4.96501C18.7579 5.2329 18.6074 5.59623 18.6074 5.97508V8.68498C18.6074 9.06383 18.7579 9.42716 19.0258 9.69505C19.2937 9.96293 19.657 10.1134 20.0359 10.1134C20.4147 10.1134 20.7781 9.96293 21.0459 9.69505C21.3138 9.42716 21.4643 9.06383 21.4643 8.68498V5.97508Z" fill="url(#paint14_linear_293_182)"/>
<g opacity="0.5" filter="url(#filter27_f_293_182)">
<path d="M22.8652 26.652C22.3072 26.7 23.2073 26.0092 23.07 24.4026C22.977 23.3195 23.355 22.4022 23.913 22.355C24.4711 22.307 24.9991 23.1463 25.0921 24.2301C25.5549 25.9649 23.424 26.6047 22.866 26.6527L22.8652 26.652Z" fill="#044FCB"/>
</g>
<path d="M19.011 11.6399C18.8135 11.0826 18.8439 10.47 19.0954 9.93504C19.3469 9.40004 19.7993 8.98585 20.3544 8.7824C20.9094 8.57894 21.5223 8.60265 22.06 8.84836C22.5977 9.09407 23.0168 9.54196 23.2262 10.0948L29.9473 28.4378C30.0525 28.7154 30.1016 29.0111 30.0917 29.3077C30.0818 29.6044 30.0132 29.8962 29.8898 30.1662C29.7665 30.4362 29.5908 30.679 29.3729 30.8806C29.155 31.0823 28.8994 31.2387 28.6207 31.3409C28.3419 31.443 28.0457 31.4889 27.7492 31.4758C27.4526 31.4627 27.1616 31.391 26.893 31.2647C26.6243 31.1384 26.3834 30.9601 26.1841 30.74C25.9849 30.52 25.8312 30.2627 25.7321 29.9829L19.011 11.6399Z" fill="url(#paint15_linear_293_182)"/>
<path d="M18.2413 9.38086C17.8242 9.48664 17.4393 9.69285 17.1202 9.98151C16.8011 10.2702 16.5574 10.6325 16.4105 11.0369L10.0936 28.3846C9.7081 29.4422 10.0936 30.5853 10.9164 31.0983L18.2413 9.38086Z" fill="url(#paint16_linear_293_182)"/>
<path opacity="0.3" d="M18.8676 6.19846C19.1871 6.51873 19.7639 6.46097 20.1562 6.0687C20.5477 5.67718 20.6062 5.09965 20.2859 4.77938C19.9657 4.45987 19.3889 4.51762 18.9966 4.90914C18.6051 5.30141 18.5473 5.87819 18.8676 6.19846Z" fill="url(#paint17_radial_293_182)" fill-opacity="0.9"/>
<path opacity="0.3" d="M15.8726 16.0113C16.8296 16.564 18.305 15.8013 19.1675 14.3072C20.03 12.8131 19.9535 11.154 18.9965 10.602C18.0387 10.0484 16.5641 10.812 15.7016 12.3061C14.839 13.8001 14.9155 15.4592 15.8726 16.0113Z" fill="url(#paint18_radial_293_182)" fill-opacity="0.9"/>
<path d="M19.9995 14.142C20.7377 14.142 21.4456 13.8487 21.9676 13.3268C22.4896 12.8048 22.7829 12.0968 22.7829 11.3586C22.7829 10.6204 22.4896 9.91242 21.9676 9.39043C21.4456 8.86845 20.7377 8.5752 19.9995 8.5752C19.2613 8.5752 18.5533 8.86845 18.0313 9.39043C17.5093 9.91242 17.2161 10.6204 17.2161 11.3586C17.2161 12.0968 17.5093 12.8048 18.0313 13.3268C18.5533 13.8487 19.2613 14.142 19.9995 14.142Z" fill="white"/>
<path fill-rule="evenodd" clip-rule="evenodd" d="M19.9993 9.30723C19.4553 9.30723 18.9335 9.52335 18.5488 9.90806C18.1641 10.2928 17.948 10.8145 17.948 11.3586C17.948 11.9026 18.1641 12.4244 18.5488 12.8091C18.9335 13.1938 19.4553 13.4099 19.9993 13.4099C20.5434 13.4099 21.0652 13.1938 21.4499 12.8091C21.8346 12.4244 22.0507 11.9026 22.0507 11.3586C22.0507 10.8145 21.8346 10.2928 21.4499 9.90806C21.0652 9.52335 20.5434 9.30723 19.9993 9.30723ZM16.4832 11.3586C16.4832 10.8969 16.5741 10.4397 16.7508 10.0131C16.9275 9.58659 17.1864 9.19901 17.5129 8.87253C17.8394 8.54606 18.227 8.28709 18.6535 8.1104C19.0801 7.93371 19.5373 7.84277 19.999 7.84277C20.4607 7.84277 20.9179 7.93371 21.3444 8.1104C21.771 8.28709 22.1586 8.54606 22.485 8.87253C22.8115 9.19901 23.0705 9.58659 23.2472 10.0131C23.4238 10.4397 23.5148 10.8969 23.5148 11.3586C23.5148 12.291 23.1444 13.1853 22.485 13.8446C21.8257 14.504 20.9314 14.8744 19.999 14.8744C19.0665 14.8744 18.1723 14.504 17.5129 13.8446C16.8536 13.1853 16.4832 12.291 16.4832 11.3586Z" fill="#202124"/>
</g>
<defs>
<filter id="filter0_f_293_182" x="23.5653" y="16.067" width="7.28953" height="3.85692" filterUnits="userSpaceOnUse" color-interpolation-filters="sRGB">
<feFlood flood-opacity="0" result="BackgroundImageFix"/>
<feBlend mode="normal" in="SourceGraphic" in2="BackgroundImageFix" result="shape"/>
<feGaussianBlur stdDeviation="0.117" result="effect1_foregroundBlur_293_182"/>
</filter>
<filter id="filter1_f_293_182" x="25.752" y="18.2864" width="5.42666" height="6.65493" filterUnits="userSpaceOnUse" color-interpolation-filters="sRGB">
<feFlood flood-opacity="0" result="BackgroundImageFix"/>
<feBlend mode="normal" in="SourceGraphic" in2="BackgroundImageFix" result="shape"/>
<feGaussianBlur stdDeviation="0.176" result="effect1_foregroundBlur_293_182"/>
</filter>
<filter id="filter2_f_293_182" x="24.1302" y="15.2044" width="5.62031" height="1.74995" filterUnits="userSpaceOnUse" color-interpolation-filters="sRGB">
<feFlood flood-opacity="0" result="BackgroundImageFix"/>
<feBlend mode="normal" in="SourceGraphic" in2="BackgroundImageFix" result="shape"/>
<feGaussianBlur stdDeviation="0.088" result="effect1_foregroundBlur_293_182"/>
</filter>
<filter id="filter3_f_293_182" x="27.5847" y="21.219" width="3.8105" height="4.49678" filterUnits="userSpaceOnUse" color-interpolation-filters="sRGB">
<feFlood flood-opacity="0" result="BackgroundImageFix"/>
<feBlend mode="normal" in="SourceGraphic" in2="BackgroundImageFix" result="shape"/>
<feGaussianBlur stdDeviation="0.088" result="effect1_foregroundBlur_293_182"/>
</filter>
<filter id="filter4_f_293_182" x="29.2247" y="15.2958" width="2.19798" height="1.82884" filterUnits="userSpaceOnUse" color-interpolation-filters="sRGB">
<feFlood flood-opacity="0" result="BackgroundImageFix"/>
<feBlend mode="normal" in="SourceGraphic" in2="BackgroundImageFix" result="shape"/>
<feGaussianBlur stdDeviation="0.117" result="effect1_foregroundBlur_293_182"/>
</filter>
<filter id="filter5_f_293_182" x="29.3182" y="15.0047" width="1.48099" height="1.89456" filterUnits="userSpaceOnUse" color-interpolation-filters="sRGB">
<feFlood flood-opacity="0" result="BackgroundImageFix"/>
<feBlend mode="normal" in="SourceGraphic" in2="BackgroundImageFix" result="shape"/>
<feGaussianBlur stdDeviation="0.029" result="effect1_foregroundBlur_293_182"/>
</filter>
<filter id="filter6_f_293_182" x="29.8145" y="15.3582" width="1.4499" height="2.16889" filterUnits="userSpaceOnUse" color-interpolation-filters="sRGB">
<feFlood flood-opacity="0" result="BackgroundImageFix"/>
<feBlend mode="normal" in="SourceGraphic" in2="BackgroundImageFix" result="shape"/>
<feGaussianBlur stdDeviation="0.088" result="effect1_foregroundBlur_293_182"/>
</filter>
<filter id="filter7_f_293_182" x="30.9327" y="21.4252" width="2.29447" height="0.646273" filterUnits="userSpaceOnUse" color-interpolation-filters="sRGB">
<feFlood flood-opacity="0" result="BackgroundImageFix"/>
<feBlend mode="normal" in="SourceGraphic" in2="BackgroundImageFix" result="shape"/>
<feGaussianBlur stdDeviation="0.029" result="effect1_foregroundBlur_293_182"/>
</filter>
<filter id="filter8_f_293_182" x="30.831" y="20.7831" width="0.429115" height="1.78776" filterUnits="userSpaceOnUse" color-interpolation-filters="sRGB">
<feFlood flood-opacity="0" result="BackgroundImageFix"/>
<feBlend mode="normal" in="SourceGraphic" in2="BackgroundImageFix" result="shape"/>
<feGaussianBlur stdDeviation="0.059" result="effect1_foregroundBlur_293_182"/>
</filter>
<filter id="filter9_f_293_182" x="31.005" y="20.5201" width="0.232285" height="0.581162" filterUnits="userSpaceOnUse" color-interpolation-filters="sRGB">
<feFlood flood-opacity="0" result="BackgroundImageFix"/>
<feBlend mode="normal" in="SourceGraphic" in2="BackgroundImageFix" result="shape"/>
<feGaussianBlur stdDeviation="0.035" result="effect1_foregroundBlur_293_182"/>
</filter>
<filter id="filter10_f_293_182" x="28.5639" y="15.9919" width="1.31535" height="1.37077" filterUnits="userSpaceOnUse" color-interpolation-filters="sRGB">
<feFlood flood-opacity="0" result="BackgroundImageFix"/>
<feBlend mode="normal" in="SourceGraphic" in2="BackgroundImageFix" result="shape"/>
<feGaussianBlur stdDeviation="0.059" result="effect1_foregroundBlur_293_182"/>
</filter>
<filter id="filter11_f_293_182" x="29.608" y="17.0621" width="0.469102" height="0.450547" filterUnits="userSpaceOnUse" color-interpolation-filters="sRGB">
<feFlood flood-opacity="0" result="BackgroundImageFix"/>
<feBlend mode="normal" in="SourceGraphic" in2="BackgroundImageFix" result="shape"/>
<feGaussianBlur stdDeviation="0.035" result="effect1_foregroundBlur_293_182"/>
</filter>
<filter id="filter12_f_293_182" x="30.8139" y="21.0753" width="2.57982" height="1.07274" filterUnits="userSpaceOnUse" color-interpolation-filters="sRGB">
<feFlood flood-opacity="0" result="BackgroundImageFix"/>
<feBlend mode="normal" in="SourceGraphic" in2="BackgroundImageFix" result="shape"/>
<feGaussianBlur stdDeviation="0.117" result="effect1_foregroundBlur_293_182"/>
</filter>
<filter id="filter13_f_293_182" x="31.0032" y="20.5545" width="2.49922" height="1.39009" filterUnits="userSpaceOnUse" color-interpolation-filters="sRGB">
<feFlood flood-opacity="0" result="BackgroundImageFix"/>
<feBlend mode="normal" in="SourceGraphic" in2="BackgroundImageFix" result="shape"/>
<feGaussianBlur stdDeviation="0.088" result="effect1_foregroundBlur_293_182"/>
</filter>
<filter id="filter14_f_293_182" x="27.0162" y="17.1005" width="1.26878" height="1.08592" filterUnits="userSpaceOnUse" color-interpolation-filters="sRGB">
<feFlood flood-opacity="0" result="BackgroundImageFix"/>
<feBlend mode="normal" in="SourceGraphic" in2="BackgroundImageFix" result="shape"/>
<feGaussianBlur stdDeviation="0.018" result="effect1_foregroundBlur_293_182"/>
</filter>
<filter id="filter15_f_293_182" x="28.5939" y="21.3822" width="1.1677" height="1.18162" filterUnits="userSpaceOnUse" color-interpolation-filters="sRGB">
<feFlood flood-opacity="0" result="BackgroundImageFix"/>
<feBlend mode="normal" in="SourceGraphic" in2="BackgroundImageFix" result="shape"/>
<feGaussianBlur stdDeviation="0.018" result="effect1_foregroundBlur_293_182"/>
</filter>
<filter id="filter16_d_293_182" x="27.1197" y="17.1482" width="1.16047" height="0.968336" filterUnits="userSpaceOnUse" color-interpolation-filters="sRGB">
<feFlood flood-opacity="0" result="BackgroundImageFix"/>
<feColorMatrix in="SourceAlpha" type="matrix" values="0 0 0 0 0 0 0 0 0 0 0 0 0 0 0 0 0 0 127 0" result="hardAlpha"/>
<feOffset dx="-0.006" dy="0.012"/>
<feGaussianBlur stdDeviation="0.006"/>
<feComposite in2="hardAlpha" operator="out"/>
<feColorMatrix type="matrix" values="0 0 0 0 0.0156863 0 0 0 0 0.231373 0 0 0 0 0.0666667 0 0 0 0.7 0"/>
<feBlend mode="normal" in2="BackgroundImageFix" result="effect1_dropShadow_293_182"/>
<feBlend mode="normal" in="SourceGraphic" in2="effect1_dropShadow_293_182" result="shape"/>
</filter>
<filter id="filter17_d_293_182" x="28.7044" y="21.4116" width="1.0384" height="1.09797" filterUnits="userSpaceOnUse" color-interpolation-filters="sRGB">
<feFlood flood-opacity="0" result="BackgroundImageFix"/>
<feColorMatrix in="SourceAlpha" type="matrix" values="0 0 0 0 0 0 0 0 0 0 0 0 0 0 0 0 0 0 127 0" result="hardAlpha"/>
<feOffset dx="-0.006" dy="0.012"/>
<feGaussianBlur stdDeviation="0.006"/>
<feComposite in2="hardAlpha" operator="out"/>
<feColorMatrix type="matrix" values="0 0 0 0 0.0156863 0 0 0 0 0.231373 0 0 0 0 0.0666667 0 0 0 0.7 0"/>
<feBlend mode="normal" in2="BackgroundImageFix" result="effect1_dropShadow_293_182"/>
<feBlend mode="normal" in="SourceGraphic" in2="effect1_dropShadow_293_182" result="shape"/>
</filter>
<filter id="filter18_f_293_182" x="27.2702" y="17.1233" width="0.974195" height="0.402174" filterUnits="userSpaceOnUse" color-interpolation-filters="sRGB">
<feFlood flood-opacity="0" result="BackgroundImageFix"/>
<feBlend mode="normal" in="SourceGraphic" in2="BackgroundImageFix" result="shape"/>
<feGaussianBlur stdDeviation="0.006" result="effect1_foregroundBlur_293_182"/>
</filter>
<filter id="filter19_f_293_182" x="28.0563" y="17.4597" width="0.207857" height="0.497408" filterUnits="userSpaceOnUse" color-interpolation-filters="sRGB">
<feFlood flood-opacity="0" result="BackgroundImageFix"/>
<feBlend mode="normal" in="SourceGraphic" in2="BackgroundImageFix" result="shape"/>
<feGaussianBlur stdDeviation="0.001" result="effect1_foregroundBlur_293_182"/>
</filter>
<filter id="filter20_f_293_182" x="29.1184" y="21.6914" width="0.615553" height="0.825025" filterUnits="userSpaceOnUse" color-interpolation-filters="sRGB">
<feFlood flood-opacity="0" result="BackgroundImageFix"/>
<feBlend mode="normal" in="SourceGraphic" in2="BackgroundImageFix" result="shape"/>
<feGaussianBlur stdDeviation="0.006" result="effect1_foregroundBlur_293_182"/>
</filter>
<filter id="filter21_f_293_182" x="27.7121" y="17.2673" width="0.303053" height="0.213697" filterUnits="userSpaceOnUse" color-interpolation-filters="sRGB">
<feFlood flood-opacity="0" result="BackgroundImageFix"/>
<feBlend mode="normal" in="SourceGraphic" in2="BackgroundImageFix" result="shape"/>
<feGaussianBlur stdDeviation="0.006" result="effect1_foregroundBlur_293_182"/>
</filter>
<filter id="filter22_f_293_182" x="29.4094" y="21.8916" width="0.198561" height="0.29109" filterUnits="userSpaceOnUse" color-interpolation-filters="sRGB">
<feFlood flood-opacity="0" result="BackgroundImageFix"/>
<feBlend mode="normal" in="SourceGraphic" in2="BackgroundImageFix" result="shape"/>
<feGaussianBlur stdDeviation="0.006" result="effect1_foregroundBlur_293_182"/>
</filter>
<filter id="filter23_f_293_182" x="27.4234" y="17.8375" width="0.677283" height="0.16117" filterUnits="userSpaceOnUse" color-interpolation-filters="sRGB">
<feFlood flood-opacity="0" result="BackgroundImageFix"/>
<feBlend mode="normal" in="SourceGraphic" in2="BackgroundImageFix" result="shape"/>
<feGaussianBlur stdDeviation="0.003" result="effect1_foregroundBlur_293_182"/>
</filter>
<filter id="filter24_f_293_182" x="28.8624" y="21.4549" width="0.479529" height="0.495643" filterUnits="userSpaceOnUse" color-interpolation-filters="sRGB">
<feFlood flood-opacity="0" result="BackgroundImageFix"/>
<feBlend mode="normal" in="SourceGraphic" in2="BackgroundImageFix" result="shape"/>
<feGaussianBlur stdDeviation="0.003" result="effect1_foregroundBlur_293_182"/>
</filter>
<filter id="filter25_f_293_182" x="26.9503" y="16.1691" width="4.09227" height="7.16551" filterUnits="userSpaceOnUse" color-interpolation-filters="sRGB">
<feFlood flood-opacity="0" result="BackgroundImageFix"/>
<feBlend mode="normal" in="SourceGraphic" in2="BackgroundImageFix" result="shape"/>
<feGaussianBlur stdDeviation="0.117" result="effect1_foregroundBlur_293_182"/>
</filter>
<filter id="filter26_f_293_182" x="26.9503" y="16.1691" width="4.09227" height="7.16551" filterUnits="userSpaceOnUse" color-interpolation-filters="sRGB">
<feFlood flood-opacity="0" result="BackgroundImageFix"/>
<feBlend mode="normal" in="SourceGraphic" in2="BackgroundImageFix" result="shape"/>
<feGaussianBlur stdDeviation="0.117" result="effect1_foregroundBlur_293_182"/>
</filter>
<filter id="filter27_f_293_182" x="22.3889" y="22.061" width="3.06056" height="4.88527" filterUnits="userSpaceOnUse" color-interpolation-filters="sRGB">
<feFlood flood-opacity="0" result="BackgroundImageFix"/>
<feBlend mode="normal" in="SourceGraphic" in2="BackgroundImageFix" result="shape"/>
<feGaussianBlur stdDeviation="0.146" result="effect1_foregroundBlur_293_182"/>
</filter>
<linearGradient id="paint0_linear_293_182" x1="29.7042" y1="33.8056" x2="28.2582" y2="32.9851" gradientUnits="userSpaceOnUse">
<stop stop-color="#4285F4"/>
<stop offset="1" stop-color="#034ECA"/>
</linearGradient>
<linearGradient id="paint1_linear_293_182" x1="27.7959" y1="16.4157" x2="27.3377" y2="18.0403" gradientUnits="userSpaceOnUse">
<stop stop-color="#A8F0B9"/>
<stop offset="1" stop-color="#ADEEBC" stop-opacity="0"/>
</linearGradient>
<linearGradient id="paint2_linear_293_182" x1="30.0641" y1="22.8439" x2="28.6878" y2="21.8674" gradientUnits="userSpaceOnUse">
<stop stop-color="#A8F0B9"/>
<stop offset="1" stop-color="#ADEEBC" stop-opacity="0"/>
</linearGradient>
<radialGradient id="paint3_radial_293_182" cx="0" cy="0" r="1" gradientUnits="userSpaceOnUse" gradientTransform="translate(30.7459 15.6018) rotate(-126.097) scale(0.341464 0.24744)">
<stop stop-color="white"/>
<stop offset="0.948" stop-color="white" stop-opacity="0"/>
</radialGradient>
<radialGradient id="paint4_radial_293_182" cx="0" cy="0" r="1" gradientUnits="userSpaceOnUse" gradientTransform="translate(32.7962 21.1979) rotate(-126.097) scale(0.341463 0.247438)">
<stop stop-color="white"/>
<stop offset="0.948" stop-color="white" stop-opacity="0"/>
</radialGradient>
<radialGradient id="paint5_radial_293_182" cx="0" cy="0" r="1" gradientUnits="userSpaceOnUse" gradientTransform="translate(28.1438 17.7875) rotate(-156.205) scale(0.133215 0.242638)">
<stop stop-color="#93E19F"/>
<stop offset="1" stop-color="#93E19F" stop-opacity="0"/>
</radialGradient>
<radialGradient id="paint6_radial_293_182" cx="0" cy="0" r="1" gradientUnits="userSpaceOnUse" gradientTransform="translate(29.4635 21.5441) rotate(117.326) scale(0.133163 0.242529)">
<stop stop-color="#93E19F"/>
<stop offset="1" stop-color="#93E19F" stop-opacity="0"/>
</radialGradient>
<linearGradient id="paint7_linear_293_182" x1="28.3224" y1="17.4512" x2="27.9391" y2="17.6057" gradientUnits="userSpaceOnUse">
<stop stop-color="#E2DDE2"/>
<stop offset="1" stop-color="#E2DDE2" stop-opacity="0"/>
</linearGradient>
<linearGradient id="paint8_linear_293_182" x1="29.6591" y1="21.7437" x2="29.3381" y2="21.857" gradientUnits="userSpaceOnUse">
<stop stop-color="#373637"/>
<stop offset="1" stop-color="#373637" stop-opacity="0"/>
</linearGradient>
<linearGradient id="paint9_linear_293_182" x1="30.6169" y1="19.0306" x2="29.0253" y2="19.5924" gradientUnits="userSpaceOnUse">
<stop stop-color="#A8F0B9"/>
<stop offset="1" stop-color="#ADEEBC" stop-opacity="0"/>
</linearGradient>
<linearGradient id="paint10_linear_293_182" x1="30.6169" y1="19.0306" x2="29.0253" y2="19.5924" gradientUnits="userSpaceOnUse">
<stop stop-color="#A8F0B9"/>
<stop offset="1" stop-color="#ADEEBC" stop-opacity="0"/>
</linearGradient>
<linearGradient id="paint11_linear_293_182" x1="18.5712" y1="24.2496" x2="25.5293" y2="23.7006" gradientUnits="userSpaceOnUse">
<stop stop-color="#4285F4"/>
<stop offset="0.703" stop-color="#044FCB"/>
</linearGradient>
<linearGradient id="paint12_linear_293_182" x1="10.6237" y1="33.4392" x2="12.1238" y2="32.5541" gradientUnits="userSpaceOnUse">
<stop stop-color="#4285F4"/>
<stop offset="1" stop-color="#034ECA"/>
</linearGradient>
<linearGradient id="paint13_linear_293_182" x1="17.5069" y1="20.8447" x2="16.7074" y2="20.5672" gradientUnits="userSpaceOnUse">
<stop stop-color="#73A7FF"/>
<stop offset="1" stop-color="#5893F6" stop-opacity="0"/>
</linearGradient>
<linearGradient id="paint14_linear_293_182" x1="20.0362" y1="6.14459" x2="21.2933" y2="7.27565" gradientUnits="userSpaceOnUse">
<stop stop-color="#4285F4"/>
<stop offset="1" stop-color="#034ECA"/>
</linearGradient>
<linearGradient id="paint15_linear_293_182" x1="21.4426" y1="13.5435" x2="25.2446" y2="21.4894" gradientUnits="userSpaceOnUse">
<stop stop-color="#034DC9"/>
<stop offset="1" stop-color="#4285F4"/>
</linearGradient>
<linearGradient id="paint16_linear_293_182" x1="12.2425" y1="20.0907" x2="14.2451" y2="20.7785" gradientUnits="userSpaceOnUse">
<stop stop-color="#9BC0FF"/>
<stop offset="1" stop-color="#5893F6" stop-opacity="0"/>
</linearGradient>
<radialGradient id="paint17_radial_293_182" cx="0" cy="0" r="1" gradientUnits="userSpaceOnUse" gradientTransform="translate(19.5764 5.48892) rotate(134.502) scale(0.630657 0.439366)">
<stop stop-color="white"/>
<stop offset="0.948" stop-color="white" stop-opacity="0"/>
</radialGradient>
<radialGradient id="paint18_radial_293_182" cx="0" cy="0" r="1" gradientUnits="userSpaceOnUse" gradientTransform="translate(17.4351 13.306) rotate(119.61) scale(1.96351 1.07272)">
<stop stop-color="white"/>
<stop offset="0.948" stop-color="white" stop-opacity="0"/>
</radialGradient>
</defs>
</svg>
