<svg width="380" height="420" viewBox="0 0 380 420" fill="none" xmlns="http://www.w3.org/2000/svg">
<path fill-rule="evenodd" clip-rule="evenodd" d="M179.03 2.86287C185.82 -0.947129 194.18 -0.947129 200.96 2.86287C234.51 21.6929 335.47 78.3729 369.03 97.2029C375.82 101.003 380 108.043 380 115.663C380 153.323 380 266.673 380 304.333C380 311.953 375.82 318.993 369.03 322.803C335.48 341.633 234.52 398.313 200.96 417.143C194.17 420.953 185.81 420.953 179.03 417.143C145.48 398.313 44.52 341.633 10.96 322.803C4.18 318.993 0 311.963 0 304.343C0 266.683 0 153.333 0 115.673C0 108.053 4.18 101.013 10.97 97.2029C44.51 78.3729 145.49 21.6929 179.03 2.86287Z" fill="#004482"/>
<path fill-rule="evenodd" clip-rule="evenodd" d="M3.04 314.043C0.38 310.483 0 307.103 0 302.553C0 265.113 0 152.413 0 114.963C0 107.383 4.17 100.383 10.94 96.6028C44.37 77.8828 144.99 21.5328 178.42 2.80282C185.19 -0.987183 194.36 -0.907184 201.13 2.88282C234.56 21.6028 334.84 77.4728 368.27 96.1928C370.97 97.7128 373.03 99.5428 374.87 101.953L3.04 314.043Z" fill="#659AD2"/>
<path fill-rule="evenodd" clip-rule="evenodd" d="M190 70.0028C267.27 70.0028 330 132.733 330 210.003C330 287.273 267.27 350.003 190 350.003C112.73 350.003 50 287.273 50 210.003C50 132.733 112.73 70.0028 190 70.0028ZM190 140.003C228.63 140.003 260 171.363 260 210.003C260 248.633 228.63 280.003 190 280.003C151.37 280.003 120 248.633 120 210.003C120 171.363 151.36 140.003 190 140.003Z" fill="white"/>
<path fill-rule="evenodd" clip-rule="evenodd" d="M374.85 102.053C380.01 106.883 379.91 114.163 379.91 119.893C379.91 157.843 379.59 265.783 380 303.733C380.04 307.693 378.73 311.863 376.77 315.003L185.93 210.003L374.85 102.053Z" fill="#00599C"/>
</svg>
