<svg width="41" height="41" viewBox="0 0 41 41" fill="none" xmlns="http://www.w3.org/2000/svg">
<path fill-rule="evenodd" clip-rule="evenodd" d="M20.73 0.71C23.3577 0.709343 25.9599 1.22627 28.3879 2.23126C30.8158 3.23625 33.0221 4.70962 34.8806 6.56726C36.7392 8.42489 38.2137 10.6304 39.2199 13.0579C40.2261 15.4854 40.7443 18.0872 40.745 20.715C40.7456 23.3428 40.2287 25.9449 39.2237 28.3729C38.2187 30.8009 36.7454 33.0071 34.8877 34.8657C33.0301 36.7242 30.8246 38.1987 28.3971 39.2049C25.9696 40.2111 23.3677 40.7293 20.74 40.73C15.433 40.7313 10.3428 38.6244 6.5893 34.8727C2.83576 31.1211 0.726302 26.032 0.724976 20.725C0.72365 15.418 2.83057 10.3279 6.58223 6.57433C10.3339 2.82079 15.423 0.711326 20.73 0.71Z" fill="url(#paint0_radial_394_23)"/>
<path fill-rule="evenodd" clip-rule="evenodd" d="M40.4 24.43C38.1455 26.0624 35.9884 27.8254 33.94 29.71C29.45 33.93 26.87 37.23 24 40.44C28.0443 39.7724 31.7861 37.8789 34.7192 35.0156C37.6523 32.1522 39.6353 28.4571 40.4 24.43Z" fill="#88A03E"/>
<path fill-rule="evenodd" clip-rule="evenodd" d="M13.83 6.94L0.72998 21.61C0.83998 24.06 1.38998 26.41 2.30998 28.55L19.53 1.92L13.83 6.94Z" fill="url(#paint1_linear_394_23)"/>
<path fill-rule="evenodd" clip-rule="evenodd" d="M0.849971 18.4C0.726838 19.4619 0.686717 20.5318 0.729971 21.6L13.83 6.94L0.859971 18.4" fill="#88A03E"/>
<path fill-rule="evenodd" clip-rule="evenodd" d="M0.890015 18.12L18.35 0.860001C13.9359 1.38862 9.82348 3.37216 6.66186 6.49756C3.50023 9.62297 1.46945 13.7123 0.890015 18.12Z" fill="url(#paint2_linear_394_23)"/>
<path fill-rule="evenodd" clip-rule="evenodd" d="M18.3 0.859999L0.869976 18.12C0.869976 18.22 0.869976 18.31 0.849976 18.4L13.85 6.94L19.54 1.92L2.30998 28.56C2.46998 28.94 2.64998 29.32 2.83998 29.69L2.95998 29.92C3.13998 30.27 3.32998 30.62 3.52998 30.95L3.55998 31.01C3.77998 31.37 4.00998 31.73 4.25998 32.08L4.36998 32.24L5.03998 33.13L5.14998 33.27C5.41998 33.6 5.69998 33.93 5.98998 34.25L6.00998 34.27C6.28998 34.57 6.57998 34.87 6.87998 35.15L7.00998 35.28C7.63998 35.86 8.30998 36.41 8.99998 36.92L9.09998 36.99C9.44998 37.24 9.79998 37.47 10.16 37.69L10.17 37.71C10.94 38.18 11.73 38.61 12.56 38.97L12.61 39C13.44 39.36 14.29 39.67 15.17 39.93L15.21 39.94C16.54 40.32 17.93 40.57 19.37 40.66C19.43 29.16 23.39 14.81 29.49 2.73C26.0162 1.04725 22.1321 0.398164 18.3 0.859999Z" fill="url(#paint3_linear_394_23)"/>
<defs>
<radialGradient id="paint0_radial_394_23" cx="0" cy="0" r="1" gradientUnits="userSpaceOnUse" gradientTransform="translate(20.73 20.71) scale(40.0288 39.9925)">
<stop stop-color="#FFF101"/>
<stop offset="1" stop-color="#E6DA1A"/>
</radialGradient>
<linearGradient id="paint1_linear_394_23" x1="0.85998" y1="21.71" x2="19.4085" y2="1.00483" gradientUnits="userSpaceOnUse">
<stop stop-color="#CFDC5E"/>
<stop offset="1" stop-color="#BFCA65"/>
</linearGradient>
<linearGradient id="paint2_linear_394_23" x1="1.00001" y1="13.69" x2="18.236" y2="0.265094" gradientUnits="userSpaceOnUse">
<stop stop-color="#CFDC5E"/>
<stop offset="1" stop-color="#BFCA65"/>
</linearGradient>
<linearGradient id="paint3_linear_394_23" x1="10.02" y1="37.03" x2="24.2874" y2="1.16378" gradientUnits="userSpaceOnUse">
<stop stop-color="#D91963"/>
<stop offset="1" stop-color="#981245"/>
</linearGradient>
</defs>
</svg>
