<svg width="400" height="268" viewBox="0 0 400 268" fill="none" xmlns="http://www.w3.org/2000/svg">
<path d="M400 0.348633H0V267.651H400V0.348633Z" fill="#36A9E1"/>
<path d="M29.9827 141.117C29.9827 118.272 44.291 97.4707 70.2626 97.4707C93.4686 97.4707 109.22 111.779 109.22 139.554V143.402H46.0946C46.3351 159.754 55.7137 170.455 71.1042 170.455C84.9317 170.455 92.146 163.121 92.7472 154.584H108.619C106.575 171.417 93.5888 182.96 70.6233 182.96C44.291 182.96 29.9827 164.203 29.9827 141.117ZM92.6269 131.378C91.3043 116.589 82.1662 110.096 70.503 110.096C58.4792 110.096 48.9803 117.671 47.0565 131.378H92.6269Z" fill="white"/>
<path d="M111.865 157.109H127.737C128.458 166.247 135.793 170.575 149.259 170.575C162.005 170.575 167.776 165.165 167.776 157.83C167.776 151.097 163.929 147.971 151.424 146.648L140.242 145.566C122.807 143.762 114.27 136.788 114.27 122.961C114.27 106.007 127.737 97.7109 146.494 97.7109C165.732 97.7109 179.8 104.925 181.002 121.879H165.732C164.65 113.342 157.917 109.975 146.253 109.975C134.59 109.975 128.578 114.424 128.578 121.398C128.578 127.891 132.546 130.536 142.887 131.738L154.069 132.821C174.149 134.865 182.686 141.598 182.686 157.229C182.686 173.822 169.219 183.201 148.177 183.201C126.414 182.96 112.346 173.581 111.865 157.109Z" fill="white"/>
<path d="M191.343 64.1646H208.176V81.4789H191.343V64.1646ZM191.944 99.9956H207.454V180.916H192.064V99.9956H191.944Z" fill="white"/>
<path d="M216.112 141.117C216.112 118.272 230.42 97.4707 256.392 97.4707C279.598 97.4707 295.349 111.779 295.349 139.554V143.402H232.224C232.464 159.754 241.843 170.455 257.233 170.455C271.061 170.455 278.275 163.121 278.876 154.584H294.748C292.704 171.417 279.718 182.96 256.752 182.96C230.42 182.96 216.112 164.203 216.112 141.117ZM278.756 131.378C277.433 116.589 268.295 110.096 256.632 110.096C244.608 110.096 235.109 117.671 233.186 131.378H278.756Z" fill="white"/>
<path d="M299.317 157.951C299.317 135.586 318.555 132.46 337.793 132.7H354.627V127.53C354.627 115.506 348.855 110.096 337.433 110.096C329.377 110.096 320.238 112.5 318.435 123.081H302.443C304.728 104.324 320.359 97.5908 336.952 97.5908C356.19 97.5908 370.017 107.45 370.017 126.689V181.036H355.709L354.987 170.576H354.266C350.058 177.79 341.28 183.08 330.098 183.08C311.822 182.96 299.317 174.904 299.317 157.951ZM354.627 156.147V144.724H338.274C327.332 144.724 315.669 144.965 315.669 157.71C315.669 167.329 322.403 170.455 330.699 170.455C342.483 170.455 351.5 163.361 354.627 156.147Z" fill="white"/>
</svg>
