<svg width="679" height="800" viewBox="0 0 679 800" fill="none" xmlns="http://www.w3.org/2000/svg">
<path d="M454 36.5L473 791.5L403.5 748L263.5 415.5L53 540L7.5 516L203.5 125L405.5 7L454 36.5Z" fill="white"/>
<path d="M545 292.5C597.8 252.1 642.667 286.333 658.5 311C657.667 321.833 650 349.7 626 374.5C602 399.3 562 402.5 545 401C523 380 507 321.576 545 292.5Z" fill="white"/>
<path d="M544.3 388.675C593.5 391.95 637.525 358.35 647.175 310.05C635.3 291.675 615 280.625 593.15 280.625C536.35 279.325 505.875 346.9 544.325 388.7L544.3 388.675ZM314.875 117.425L448.85 39.825L406.15 15.75L221.375 122.775L236.1 130.975L264.075 146.7L314.875 117.3V117.425ZM466.025 32.675C468.25 33.35 470.05 35.175 470.725 37.375L532.825 227.2C534 230.475 532.7 234 529.7 235.8C480.5 264.7 456.8 323.025 471.775 378.125C488.175 437.9 545.2 476.95 606.8 470.7C610.175 470.425 613.425 472.525 614.475 475.775L678.55 670.85C679.575 674.125 678.275 677.625 675.425 679.45L478.95 798.725C478.025 799.25 476.85 799.625 475.675 799.625C473.975 800.025 472.175 799.625 470.6 798.6L401.475 753.675C400.275 752.9 399.375 751.75 398.75 750.45L263.85 428.05L58.375 549.925C57.975 550.2 57.45 550.45 57.075 550.725C54.975 551.625 52.5 551.35 50.55 550.2L4.07501 522.875C0.675008 521.05 -0.624992 516.75 1.20001 513.35L200.025 119.625C200.65 118.2 201.95 117.025 203.4 116.35L402.375 1.12496C404.575 -0.175045 407.3 -0.300045 409.675 0.999955L466.025 32.675ZM257.975 160.175L209.675 132.95L17.35 513.675L52.25 534.25L218.025 308.875C219.6 306.65 222.2 305.475 224.8 305.875C227.4 306.15 229.6 307.8 230.675 310.3L411.375 742.7L459.7 773.975L258.125 160.175H257.975ZM593.125 424.1C536.725 424.1 498.45 366.8 520.05 314.7C541.55 262.625 609.125 249.225 648.95 289.075C663.825 303.9 672.15 323.975 672.15 344.95C672.275 388.675 636.85 424.1 593.125 424.1Z" fill="#494949"/>
</svg>
