<svg width="30" height="38" viewBox="0 0 30 38" fill="none" xmlns="http://www.w3.org/2000/svg">
<path fill-rule="evenodd" clip-rule="evenodd" d="M9.75 36.4759C14.6803 38.1237 19.1928 37.5931 21.0312 36.2247L14.5968 29.1875L9.75 36.4759Z" fill="#FDAF67"/>
<path fill-rule="evenodd" clip-rule="evenodd" d="M15.2358 0.5C-3.49478 21.1339 17.213 35.2109 20.8469 36.4688C30.2522 30.0458 29.2369 24.4256 29.3438 22.4988C27.8475 12.4361 19.9384 7.83291 15.2358 0.5Z" fill="#DD6447"/>
<path fill-rule="evenodd" clip-rule="evenodd" d="M1.75782 15.6113C-1.66577 27.0561 3.41613 33.0459 9.78188 36.4688C17.271 31.7091 17.057 25.0239 15.3987 21.7081C12.7775 16.7878 8.23054 14.4347 1.75782 15.6113Z" fill="#FFD97F"/>
<path fill-rule="evenodd" clip-rule="evenodd" d="M7.59907 15.5938L8.2321 15.7062C11.373 16.5415 13.762 18.6158 15.3993 21.6938C16.5387 23.9756 16.9958 27.8513 14.7381 31.5991L14.4683 32L14.1654 31.7241C10.5945 28.2063 7.12032 22.8956 7.53354 16.2119L7.59907 15.5938Z" fill="#FDAF67"/>
</svg>
