<svg width="800" height="800" viewBox="0 0 800 800" fill="none" xmlns="http://www.w3.org/2000/svg">
<path d="M775.506 409.906C775.506 488.329 748.659 557.952 693.882 619.482C674.024 642.423 658.118 653.293 647.318 653.293C643.53 653.293 639.224 652.187 636.4 649.364C633.459 646.329 631.765 642.399 631.765 638.352C631.765 632.446 638.73 623.505 652.847 610.517C709.694 556 738.376 488.329 738.376 407.953C738.376 318.612 708.847 246.33 650.024 190.283C638.377 179.648 632.118 170.683 632.118 163.578C632.118 159.907 634.094 155.601 637.271 152.778C640.589 149.954 644.4 148.142 648.189 148.142C661.294 148.142 681.153 164.048 706.047 196.048C752.988 255.718 776.517 327.647 776.517 410.753L775.506 409.906ZM23.5322 390.094C23.5322 311.671 50.3556 242.048 105.038 180.401C124.991 157.601 140.92 146.707 151.838 146.707C155.508 146.707 159.814 147.672 162.638 150.636C165.438 153.578 167.273 156.495 167.273 160.425C167.273 166.33 160.143 175.389 146.073 189.225C90.332 244.001 61.0144 311.412 61.0144 391.93C61.0144 481.27 90.9202 553.811 149.649 609.599C161.508 620.352 167.414 629.434 167.414 636.305C167.414 640.352 165.555 644.399 162.402 647.34C159.32 650.281 155.414 652.234 151.367 652.234C137.791 652.234 119.014 636.305 94.0261 604.682C46.591 545.976 23.5558 474.423 23.5558 390.118L23.5322 390.094ZM578.801 605.529H234.214C223.178 605.529 213.249 596.588 213.249 584.705C213.249 572.682 222.19 563.741 234.214 563.741H578.801C589.718 563.741 599.765 572.682 599.765 584.705C599.506 596.729 590.706 605.529 578.801 605.529ZM390.566 325.742C396.707 324.871 401.366 344.965 401.86 349.271C403.295 360.283 399.625 370.941 394.613 380.635C375.86 417.271 332.613 446.682 344.143 492.894C349.296 512.753 359.578 526.588 391.554 543.623C380.801 547.294 365.696 540.211 357.272 534.188C319.649 508.588 295.743 466.541 298.072 420.588C298.919 406.118 301.743 391.788 305.531 377.694C317.296 337.506 341.319 302.471 355.296 263.365C362.425 244.471 367.554 221.789 361.907 202.072C359.084 192.401 353.931 183.225 347.319 175.366C345.507 173.036 334.707 160.778 330.402 162.26C349.296 155.131 366.19 161.766 382.613 171.578C395.248 179.177 405.178 189.954 412.637 202.189C426.754 224.754 432.378 250.589 435.201 276.824C436.166 287.742 434.825 314.095 447.46 319.248C460.707 324.871 470.989 302.801 473.813 293.859C479.93 273.648 471.954 254.26 464.001 235.53C465.86 239.318 472.942 243.507 476.142 246.424L487.413 257.224C501.154 271.318 509.601 288.73 515.248 307.483C520.401 324.4 522.707 341.812 523.695 358.706C526.048 394 518.071 430.259 503.954 462.612C497.836 477.2 489.86 490.823 479.46 502.588C469.554 514.235 456.048 521.811 445.272 532.611C470.519 507.223 484.142 465.812 480.448 434.329C478.636 417.035 472.989 400.988 459.742 385.035C459.742 385.035 461.225 396.33 462.566 403.294C464.895 418.894 454.472 435.294 442.354 433.435C433.389 432.471 438.048 413.224 439.036 407.106C442.354 388.847 438.072 370.941 431.319 354.024C424.825 337.953 412.566 325.342 393.837 328.165L390.566 325.742Z" fill="black"/>
</svg>
