<svg width="200" height="200" viewBox="0 0 200 200" fill="none" xmlns="http://www.w3.org/2000/svg">
<path fill-rule="evenodd" clip-rule="evenodd" d="M100.023 199.585C154.971 199.585 199.515 155.041 199.515 100.093C199.515 45.1448 154.971 0.600586 100.023 0.600586C45.0745 0.600586 0.530273 45.1448 0.530273 100.093C0.530273 155.041 45.0745 199.585 100.023 199.585ZM178.411 100.53C178.411 56.9927 143.317 21.7052 100.023 21.7052C56.7371 21.7052 21.635 56.9927 21.635 100.53C21.635 135.357 44.0931 164.91 75.2445 175.327C79.156 176.057 80.5984 173.619 80.5984 171.536C80.5984 170.618 80.5815 168.665 80.5597 166.138C80.5369 163.497 80.5087 160.229 80.4887 156.861C58.6811 161.628 54.0797 147.559 54.0797 147.559C50.5131 138.449 45.3787 136.027 45.3787 136.027C38.2689 131.138 45.9117 131.237 45.9117 131.237C53.7819 131.791 57.9286 139.364 57.9286 139.364C64.9208 151.412 76.2714 147.926 80.7395 145.911C81.445 140.814 83.4752 137.342 85.7171 135.374C68.3072 133.383 50.0036 126.614 50.0036 96.4158C50.0036 87.8052 53.0685 80.7787 58.0775 75.2587C57.2701 73.2675 54.5814 65.2499 58.8379 54.3943C58.8379 54.3943 65.4225 52.2822 80.4024 62.4765C86.6578 60.7314 93.3599 59.8533 100.023 59.8225C106.686 59.8533 113.396 60.7314 119.659 62.4765C134.623 52.2822 141.192 54.3943 141.192 54.3943C145.464 65.2499 142.776 73.2675 141.96 75.2587C146.993 80.7787 150.034 87.8052 150.034 96.4158C150.034 126.691 131.692 133.357 114.235 135.31C117.049 137.755 119.557 142.552 119.557 149.902C119.557 156.951 119.515 163.08 119.487 167.146C119.473 169.164 119.463 170.674 119.463 171.536C119.463 173.634 120.874 176.096 124.848 175.32C155.976 164.887 178.411 135.349 178.411 100.53Z" fill="#D4F0FA"/>
</svg>
