<svg width="2196" height="2196" viewBox="0 0 2196 2196" fill="none" xmlns="http://www.w3.org/2000/svg">
<path d="M2196 1098C2196 1704.41 1704.41 2196 1098 2196C491.591 2196 0 1704.41 0 1098C0 491.591 491.591 0 1098 0C1704.41 0 2196 491.591 2196 1098Z" fill="#6747C7"/>
<path fill-rule="evenodd" clip-rule="evenodd" d="M562 463L846.407 616.275V900.933H1262.08L1524.62 1054.21H562V463ZM1634 1010.42V616.275L1327.71 463V835.242L1634 1010.42ZM1634 1733L1349.59 1579.72V1295.07H933.916L671.382 1141.79H1634V1733ZM562 1185.58V1579.72L868.281 1733V1360.76L562 1185.58Z" fill="white"/>
</svg>
