<svg width="800" height="800" viewBox="0 0 800 800" fill="none" xmlns="http://www.w3.org/2000/svg">
<g clip-path="url(#clip0_230_49)">
<path d="M400 779.66C609.682 779.66 779.663 609.68 779.663 400C779.663 190.319 609.682 20.339 400 20.339C190.32 20.339 20.34 190.319 20.34 400C20.34 609.68 190.32 779.66 400 779.66Z" fill="white"/>
<path d="M400 0C179.086 0 0 179.086 0 400C0 620.915 179.086 800 400 800C620.915 800 800 620.915 800 400C800 179.086 620.915 0 400 0ZM400 40.678C598.448 40.678 759.323 201.552 759.323 400C759.323 598.448 598.448 759.323 400 759.323C201.552 759.323 40.678 598.448 40.678 400C40.678 201.552 201.552 40.678 400 40.678Z" fill="#4000BF"/>
<path d="M404.518 115.254C561.78 115.254 689.265 242.739 689.265 400C689.265 557.26 561.78 684.745 404.518 684.745C247.257 684.745 119.772 557.26 119.772 400C119.772 361.568 127.387 324.913 141.189 291.46C161.343 318.905 193.844 336.723 230.507 336.723C291.665 336.723 341.24 287.145 341.24 225.989C341.24 189.326 323.425 156.825 295.977 136.672C329.43 122.869 366.085 115.254 404.518 115.254Z" fill="#4000BF"/>
</g>
<defs>
<clipPath id="clip0_230_49">
<rect width="800" height="800" fill="white"/>
</clipPath>
</defs>
</svg>
