<svg width="120" height="120" viewBox="0 0 120 120" fill="none" xmlns="http://www.w3.org/2000/svg">
<path d="M108 59C108 84.9574 86.9574 106 61 106C35.0426 106 14 84.9574 14 59C14 33.0426 35.0426 12 61 12C86.9574 12 108 33.0426 108 59Z" fill="white"/>
<path d="M55.6153 115.118C42.5188 113.765 30.814 108.384 21.6271 99.4923C16.9916 95.0059 13.5498 90.4027 10.6965 84.8735C0.653068 65.4107 2.61009 42.5895 15.8421 24.8699C17.8591 22.1689 23.8632 16.1648 26.5642 14.1478C34.4106 8.28859 43.1472 4.6384 52.8636 3.1599C56.1213 2.66418 64.1031 2.5964 67.2826 3.03744C84.2863 5.39611 98.6161 14.2665 107.697 28.0547C118.71 44.776 120.039 66.0448 111.182 83.8362C108.112 90.0039 105.429 93.7156 100.42 98.7253C95.4028 103.742 91.3369 106.669 85.2694 109.632C80.1141 112.15 74.9666 113.763 69.1443 114.687C65.8914 115.202 58.6635 115.433 55.6153 115.118ZM60.2382 97.2751C66.2941 96.7204 71.2205 95.1222 75.3177 92.383C77.3059 91.0538 80.4293 87.7525 81.6779 85.6606C83.0302 83.395 84.0647 80.6595 84.692 77.6903C85.375 74.4572 85.3994 68.8325 84.7435 65.8056C82.7656 56.6774 76.1702 50.7268 66.0719 48.9591C62.7453 48.3768 56.8716 48.4275 52.6919 49.0747C50.9024 49.3517 49.3881 49.5283 49.3268 49.467C49.1436 49.2838 50.8282 31.1599 51.0562 30.8615C51.2206 30.6464 54.377 30.5863 65.5249 30.5863C78.5773 30.5863 79.7952 30.5556 79.9229 30.2228C79.9997 30.0228 80.0533 27.6453 80.0421 24.9395C80.0232 20.3721 79.9922 20.0039 79.6104 19.7995C79.3451 19.6576 72.3247 19.5794 59.8393 19.5794C44.1176 19.5794 40.4345 19.6338 40.2396 19.8687C40.0652 20.0788 37.1237 55.0942 37.1237 56.9596C37.1237 57.0734 38.3296 57.8875 39.8035 58.7689L42.4834 60.3713L46.0225 59.7882C53.4198 58.5693 58.152 58.5266 62.5497 59.639C67.4784 60.8859 70.7265 63.7856 72.0495 68.1199C72.3674 69.1614 72.4497 70.1391 72.4385 72.7429C72.4258 75.7069 72.3642 76.227 71.8371 77.8233C69.6663 84.3971 63.6882 87.4956 53.9643 87.0868C48.3224 86.8496 42.5958 85.5018 37.8284 83.289C36.4075 82.6295 35.7497 82.4213 35.6779 82.6084C35.621 82.7566 35.6011 85.2535 35.6336 88.1569L35.6928 93.4359L36.9035 94.0374C42.237 96.6869 51.9482 98.0343 60.2382 97.2751Z" fill="#DB5149"/>
<path d="M55.6152 115.118C49.1888 114.454 42.8414 112.761 37.3988 110.259L35.5826 109.424V101.485C35.5826 97.1186 35.6229 93.5459 35.6722 93.5459C35.7214 93.5459 36.4109 93.8372 37.2044 94.1932C45.7141 98.0112 60.1718 98.6061 68.9751 95.5004C73.128 94.0354 75.7637 92.3907 78.6197 89.4824C81.8036 86.2401 83.6384 82.677 84.6919 77.6903C85.3749 74.4572 85.3993 68.8325 84.7435 65.8055C82.7656 56.6774 76.1702 50.7268 66.0718 48.9591C62.7453 48.3768 56.8715 48.4275 52.6918 49.0746C50.9023 49.3517 49.388 49.5283 49.3268 49.467C49.1435 49.2838 50.8281 31.1599 51.0561 30.8615C51.2205 30.6463 54.3787 30.5863 65.5336 30.5863C78.9322 30.5863 79.8076 30.5629 79.9123 30.2011C79.9737 29.9892 80.0142 24.5895 80.0024 18.2017C79.9905 11.814 80.051 6.51744 80.1368 6.43163C80.6117 5.95673 87.793 9.43272 91.628 11.9938C98.1901 16.376 103.502 21.6855 107.697 28.0547C118.71 44.776 120.039 66.0448 111.182 83.8362C108.112 90.0039 105.429 93.7156 100.419 98.7252C95.4027 103.742 91.3368 106.669 85.2694 109.632C80.114 112.15 74.9666 113.763 69.1443 114.687C65.8914 115.202 58.6635 115.433 55.6152 115.118Z" fill="#24A061"/>
</svg>
