<svg width="401" height="401" viewBox="0 0 401 401" fill="none" xmlns="http://www.w3.org/2000/svg">
<rect x="0.349121" y="0.77002" width="400" height="400" rx="30" fill="#7451EB"/>
<path fill-rule="evenodd" clip-rule="evenodd" d="M86.8488 322.351C111.709 340.508 142.349 351.224 175.491 351.224C258.585 351.224 325.945 283.863 325.945 200.77C325.945 117.676 258.585 50.3159 175.491 50.3159C142.29 50.3159 111.6 61.0704 86.7153 79.286L138.17 139.858C149.031 133.19 161.812 129.344 175.491 129.344C214.939 129.344 246.917 161.323 246.917 200.77C246.917 240.218 214.939 272.196 175.491 272.196C161.872 272.196 149.142 268.384 138.312 261.769L86.8488 322.351Z" fill="white"/>
</svg>
