<svg width="700" height="800" viewBox="0 0 700 800" fill="none" xmlns="http://www.w3.org/2000/svg">
<path d="M448.865 243.821L26.1619 2.22729C20.8503 -0.856884 14.1679 -0.685541 9.02759 2.39863C3.71596 5.4828 0.460449 10.9658 0.460449 17.1341C0.460449 17.1341 0.631792 39.4087 0.803135 76.0761L308.706 383.979L448.865 243.821Z" fill="url(#paint0_linear_406_87)"/>
<path d="M0.803223 76.0762C1.31725 208.353 2.85934 529.449 3.54471 689.312L308.878 383.979L0.803223 76.0762Z" fill="url(#paint1_linear_406_87)"/>
<path d="M690.801 382.095L448.865 243.821L308.535 383.979L466.856 542.3L690.972 411.737C696.284 408.653 699.54 402.998 699.54 397.001C699.54 390.833 696.113 385.179 690.801 382.095Z" fill="url(#paint2_linear_406_87)"/>
<path d="M3.37329 689.313C3.71598 746.37 3.88732 782.866 3.88732 782.866C3.88732 789.034 7.14284 794.688 12.4545 797.601C17.7661 800.685 24.2771 800.685 29.5888 797.601L467.027 542.472L308.706 384.151L3.37329 689.313Z" fill="url(#paint3_linear_406_87)"/>
<defs>
<linearGradient id="paint0_linear_406_87" x1="0.460449" y1="192.065" x2="448.944" y2="192.065" gradientUnits="userSpaceOnUse">
<stop stop-color="#63BE6B"/>
<stop offset="0.506" stop-color="#5BBC6A"/>
<stop offset="1" stop-color="#4AB96A"/>
</linearGradient>
<linearGradient id="paint1_linear_406_87" x1="0.720978" y1="382.768" x2="308.7" y2="382.768" gradientUnits="userSpaceOnUse">
<stop stop-color="#3EC6F2"/>
<stop offset="1" stop-color="#45AFE3"/>
</linearGradient>
<linearGradient id="paint2_linear_406_87" x1="308.7" y1="393.17" x2="699.498" y2="393.17" gradientUnits="userSpaceOnUse">
<stop stop-color="#FAA51A"/>
<stop offset="0.387" stop-color="#FAB716"/>
<stop offset="0.741" stop-color="#FAC412"/>
<stop offset="1" stop-color="#FAC80F"/>
</linearGradient>
<linearGradient id="paint3_linear_406_87" x1="3.44868" y1="592.026" x2="467.02" y2="592.026" gradientUnits="userSpaceOnUse">
<stop stop-color="#EC3B50"/>
<stop offset="1" stop-color="#E7515B"/>
</linearGradient>
</defs>
</svg>
