<svg width="117" height="117" viewBox="0 0 117 117" fill="none" xmlns="http://www.w3.org/2000/svg">
<path fill-rule="evenodd" clip-rule="evenodd" d="M117 58.5C117 90.8087 90.8087 117 58.5 117C26.1913 117 0 90.8087 0 58.5C0 26.1913 26.1913 0 58.5 0C90.8087 0 117 26.1913 117 58.5ZM30 30C30 27.2386 32.2386 25 35 25H82C84.7614 25 87 27.2395 87 30.001V88.999C87 91.7605 84.7614 94 82 94H35C32.2386 94 30 91.7614 30 89V30ZM59.5 32C64.1944 32 68 35.8056 68 40.5C68 43.5928 66.3482 46.2998 63.8786 47.7869C70.2268 49.0943 75 54.7148 75 61.45C75 62.306 74.306 63 73.45 63H45.55C44.694 63 44 62.306 44 61.45C44 54.7148 48.7732 49.0943 55.1214 47.7869C52.6518 46.2998 51 43.5928 51 40.5C51 35.8056 54.8056 32 59.5 32ZM51.0605 85.28C49.9538 85.28 48.9271 85.1066 47.9805 84.76C47.0471 84.4 46.2338 83.8933 45.5405 83.24C44.8605 82.5866 44.3271 81.82 43.9405 80.94C43.5538 80.0466 43.3605 79.0666 43.3605 78C43.3605 76.9333 43.5538 75.96 43.9405 75.08C44.3271 74.1866 44.8605 73.4133 45.5405 72.76C46.2338 72.1066 47.0471 71.6066 47.9805 71.26C48.9271 70.9 49.9538 70.72 51.0605 70.72C52.3538 70.72 53.5071 70.9466 54.5205 71.4C55.5471 71.8533 56.4005 72.5066 57.0805 73.36L54.5605 75.64C54.1071 75.1066 53.6071 74.7 53.0605 74.42C52.5271 74.14 51.9271 74 51.2605 74C50.6871 74 50.1605 74.0933 49.6805 74.28C49.2005 74.4666 48.7871 74.74 48.4405 75.1C48.1071 75.4466 47.8405 75.8666 47.6405 76.36C47.4538 76.8533 47.3605 77.4 47.3605 78C47.3605 78.6 47.4538 79.1466 47.6405 79.64C47.8405 80.1333 48.1071 80.56 48.4405 80.92C48.7871 81.2666 49.2005 81.5333 49.6805 81.72C50.1605 81.9066 50.6871 82 51.2605 82C51.9271 82 52.5271 81.86 53.0605 81.58C53.6071 81.3 54.1071 80.8933 54.5605 80.36L57.0805 82.64C56.4005 83.48 55.5471 84.1333 54.5205 84.6C53.5071 85.0533 52.3538 85.28 51.0605 85.28ZM58.727 71H63.007L66.8019 80.1256L70.687 71H74.607L68.607 85H64.707L58.727 71Z" fill="white"/>
</svg>
