<svg width="117" height="117" viewBox="0 0 117 117" fill="none" xmlns="http://www.w3.org/2000/svg">
<path fill-rule="evenodd" clip-rule="evenodd" d="M117 58.5C117 90.8087 90.8087 117 58.5 117C26.1913 117 0 90.8087 0 58.5C0 26.1913 26.1913 0 58.5 0C90.8087 0 117 26.1913 117 58.5ZM26 27C26 20.9249 30.9249 16 37 16H80C86.0751 16 91 20.9329 91 27.008V91.992C91 98.0671 86.0751 103 80 103H37C30.9249 103 26 98.0751 26 92V27ZM59.5988 26.2641C65.7431 26.2641 70.724 31.2451 70.724 37.3894C70.724 41.4375 68.562 44.9806 65.3297 46.927C73.6386 48.6382 79.886 55.9945 79.886 64.81C79.886 65.9304 78.9778 66.8387 77.8573 66.8387H41.3402C40.2198 66.8387 39.3115 65.9304 39.3115 64.81C39.3115 55.9945 45.5589 48.6382 53.8678 46.927C50.6355 44.9805 48.4735 41.4375 48.4735 37.3894C48.4735 31.2451 53.4544 26.2641 59.5988 26.2641ZM48.5526 94C47.1042 94 45.7604 93.7731 44.5214 93.3194C43.2998 92.8482 42.2352 92.1851 41.3277 91.3299C40.4377 90.4748 39.7397 89.4714 39.2336 88.3196C38.7275 87.1503 38.4744 85.8676 38.4744 84.4715C38.4744 83.0754 38.7275 81.8015 39.2336 80.6497C39.7397 79.4804 40.4377 78.4682 41.3277 77.6131C42.2352 76.758 43.2998 76.1036 44.5214 75.6498C45.7604 75.1786 47.1042 74.9431 48.5526 74.9431C50.2454 74.9431 51.755 75.2397 53.0813 75.8331C54.425 76.4264 55.5419 77.2815 56.432 78.3984L53.1336 81.3826C52.5403 80.6846 51.8859 80.1523 51.1703 79.7858C50.4723 79.4193 49.687 79.2361 48.8144 79.2361C48.064 79.2361 47.3747 79.3583 46.7464 79.6026C46.1182 79.8469 45.5772 80.2047 45.1234 80.6758C44.6871 81.1296 44.3381 81.6793 44.0763 82.325C43.832 82.9707 43.7099 83.6862 43.7099 84.4715C43.7099 85.2569 43.832 85.9724 44.0763 86.6181C44.3381 87.2638 44.6871 87.8222 45.1234 88.2934C45.5772 88.7471 46.1182 89.0962 46.7464 89.3405C47.3747 89.5848 48.064 89.707 48.8144 89.707C49.687 89.707 50.4723 89.5237 51.1703 89.1572C51.8859 88.7908 52.5403 88.2585 53.1336 87.5604L56.432 90.5446C55.5419 91.6441 54.425 92.4992 53.0813 93.11C51.755 93.7033 50.2454 94 48.5526 94ZM58.5871 75.3095H64.189L69.1559 87.2537L74.241 75.3095H79.3717L71.5186 93.6335H66.414L58.5871 75.3095Z" fill="#D4F0FA"/>
</svg>
