<?xml version="1.0" encoding="utf-8"?>

<!DOCTYPE svg PUBLIC "-//W3C//DTD SVG 1.1//EN" "http://www.w3.org/Graphics/SVG/1.1/DTD/svg11.dtd">
<!-- Uploaded to: SVG Repo, www.svgrepo.com, Generator: SVG Repo Mixer Tools -->
<svg fill="#D4F0FA" version="1.1" id="Layer_1" xmlns="http://www.w3.org/2000/svg" xmlns:xlink="http://www.w3.org/1999/xlink" 
	 width="800px" height="800px" viewBox="0 0 100 100" enable-background="new 0 0 100 100" xml:space="preserve">
<g>
	<path d="M50.5,19.881c-1.104,0-2,0.896-2,2V72.17L33.193,56.609c-0.781-0.781-1.922-0.781-2.703,0
		c-0.781,0.78-0.719,2.047,0.062,2.828l18.883,18.857c0.375,0.375,0.899,0.586,1.43,0.586s1.047-0.211,1.422-0.586l18.857-18.857
		c0.781-0.781,0.783-2.048,0.002-2.828c-0.781-0.781-2.296-0.781-3.077,0L52.5,71.933V21.881C52.5,20.776,51.604,19.881,50.5,19.881
		z"/>
</g>
</svg>