<svg width="116" height="116" viewBox="0 0 116 116" fill="none" xmlns="http://www.w3.org/2000/svg">
<path fill-rule="evenodd" clip-rule="evenodd" d="M58 116C90.0325 116 116 90.0325 116 58C116 25.9675 90.0325 0 58 0C25.9675 0 0 25.9675 0 58C0 90.0325 25.9675 116 58 116ZM77.6493 44.3029C81.3241 40.9955 84.4087 38.2338 84.4978 38.1559C84.6315 38.0223 80.3998 38 57.9945 38C35.5892 38 31.3575 38.0223 31.4912 38.1559C31.5803 38.2338 34.6649 40.9955 38.3397 44.3029C42.0145 47.5991 47.9166 52.8998 51.4689 56.0958C55.0101 59.2806 57.95 61.8864 57.9945 61.8864C58.0391 61.8864 60.9789 59.2806 64.5201 56.0958C68.0725 52.8998 73.9745 47.5991 77.6493 44.3029ZM49.9545 61.9309C49.9321 61.8975 44.8542 57.3318 38.6627 51.7973C32.4823 46.2628 27.3264 41.6637 27.2262 41.5746C27.048 41.4298 27.0369 42.588 27.0369 59.9265C27.0369 70.0935 27.0703 78.4231 27.1036 78.4231C27.2262 78.4231 49.9767 62.0089 49.9545 61.9309ZM66.1571 61.9644C66.1906 62.098 88.8408 78.4565 88.9076 78.4008C88.9299 78.3674 88.941 70.0378 88.9299 59.8931L88.8965 41.441L77.5156 51.6637C71.2573 57.2873 66.146 61.9198 66.1571 61.9644ZM58.1615 68.2672C57.2262 68.334 56.7584 68.1002 55.3553 66.8641L55.3368 66.8478C54.7101 66.298 54.1744 65.8282 54.1304 65.8062C54.0747 65.7839 53.2173 66.363 52.1927 67.1091C51.5673 67.5696 49.5081 69.0609 46.8894 70.9573C45.2653 72.1335 43.426 73.4655 41.5803 74.804L32.7941 81.1514L45.3888 81.1848C52.3152 81.1959 63.6849 81.1959 70.656 81.1848L83.3286 81.1514L73.863 74.314C71.9573 72.9346 70.1053 71.5957 68.4919 70.4292C65.7028 68.4126 63.6265 66.9114 63.2172 66.608L62.048 65.7505L60.8899 66.7527C59.5312 67.9332 59.0636 68.1893 58.1615 68.2672Z" fill="#D4F0FA"/>
</svg>
