<svg width="117" height="117" viewBox="0 0 117 117" fill="none" xmlns="http://www.w3.org/2000/svg">
<path fill-rule="evenodd" clip-rule="evenodd" d="M58.5 117C90.8087 117 117 90.8087 117 58.5C117 26.1913 90.8087 0 58.5 0C26.1913 0 0 26.1913 0 58.5C0 90.8087 26.1913 117 58.5 117ZM16 60.0179C16 36.824 35.04 18 58.5 18C81.96 18 101 36.824 101 60.0179C101 78.5898 88.845 94.3045 71.9725 99.9349C69.805 100.313 69.125 98.9685 69.125 97.834V86.3211C69.125 82.4135 67.7225 79.8504 66.1925 78.5478C75.67 77.4974 85.615 73.9678 85.615 57.917C85.615 53.253 84 49.5134 81.2375 46.5302C81.6625 45.4797 83.15 41.1098 80.8125 35.4374C80.8125 35.4374 77.2425 34.3029 69.125 39.7233C65.7675 38.7989 62.1125 38.3367 58.5 38.3367C54.8875 38.3367 51.2325 38.7989 47.875 39.7233C39.7575 34.3029 36.1875 35.4374 36.1875 35.4374C33.85 41.1098 35.3375 45.4797 35.7625 46.5302C33 49.5134 31.385 53.253 31.385 57.917C31.385 73.9258 41.2875 77.5394 50.7225 78.5898C49.5325 79.6403 48.4275 81.4891 48.045 84.2202C45.6225 85.2287 39.375 87.1195 35.6775 80.7327C35.6775 80.7327 33.425 76.699 29.175 76.4049C29.175 76.4049 25.01 76.3209 28.8775 78.926C28.8775 78.926 31.64 80.2285 33.595 85.1026C33.595 85.1026 36.1025 93.2541 47.875 90.733V97.834C47.875 98.9685 47.195 100.271 45.07 99.9349C28.1975 94.3465 16 78.5898 16 60.0179Z" fill="#D4F0FA"/>
</svg>
