<svg width="66" height="66" viewBox="0 0 66 66" fill="none" xmlns="http://www.w3.org/2000/svg">
<path fill-rule="evenodd" clip-rule="evenodd" d="M33 66C51.2254 66 66 51.2254 66 33C66 14.7746 51.2254 0 33 0C14.7746 0 0 14.7746 0 33C0 51.2254 14.7746 66 33 66ZM59 33.1449C59 18.7043 47.3598 7 33 7C18.6428 7 7 18.7043 7 33.1449C7 44.6964 14.449 54.4986 24.7814 57.9539C26.0788 58.1961 26.5572 57.3874 26.5572 56.6963C26.5572 56.3921 26.5516 55.7442 26.5444 54.906C26.5368 54.03 26.5275 52.946 26.5208 51.8291C19.2876 53.4101 17.7614 48.7437 17.7614 48.7437C16.5784 45.722 14.8754 44.9188 14.8754 44.9188C12.5172 43.297 15.0522 43.33 15.0522 43.33C17.6626 43.5136 19.038 46.0257 19.038 46.0257C21.3572 50.0215 25.122 48.8652 26.604 48.1971C26.838 46.5065 27.5114 45.3549 28.255 44.7021C22.4804 44.0417 16.4094 41.7967 16.4094 31.7803C16.4094 28.9243 17.426 26.5937 19.0874 24.7628C18.8196 24.1024 17.9278 21.4431 19.3396 17.8425C19.3396 17.8425 21.5236 17.1419 26.4922 20.5232C28.567 19.9444 30.79 19.6531 33 19.6429C35.21 19.6531 37.4356 19.9444 39.513 20.5232C44.4764 17.1419 46.6552 17.8425 46.6552 17.8425C48.0722 21.4431 47.1804 24.1024 46.91 24.7628C48.5792 26.5937 49.588 28.9243 49.588 31.7803C49.588 41.8222 43.504 44.0332 37.7138 44.6809C38.6472 45.4918 39.4792 47.0829 39.4792 49.5207C39.4792 51.8588 39.4653 53.8916 39.456 55.2402C39.4514 55.9096 39.448 56.4104 39.448 56.6963C39.448 57.3925 39.916 58.2089 41.2342 57.9514C51.5588 54.491 59 44.6939 59 33.1449Z" fill="#D4F0FA"/>
</svg>
