<svg width="116" height="116" viewBox="0 0 116 116" fill="none" xmlns="http://www.w3.org/2000/svg">
<path d="M41.5611 83.1637V44.37H28.6603V83.1679H41.557L41.5611 83.1637ZM35.1107 39.0671C39.6057 39.0671 42.4104 36.0843 42.4104 32.3599C42.3276 28.5567 39.6057 25.6609 35.2019 25.6609C30.7814 25.6609 27.9021 28.5609 27.9021 32.3599C27.9021 36.0884 30.7027 39.0713 35.032 39.0713L35.1107 39.0671ZM88.0647 83.1637V60.9207C88.0647 49.0017 81.7013 43.4544 73.2209 43.4544C66.3686 43.4544 63.3029 47.2244 61.596 49.8634V44.3617H48.6993C48.8691 48.0074 48.6993 83.1637 48.6993 83.1637H61.596V61.4966C61.596 60.3366 61.6789 59.1766 62.0186 58.3563C62.9466 56.0363 65.0719 53.6376 68.6306 53.6376C73.2996 53.6376 75.1763 57.1921 75.1763 62.408V83.1679H88.0689L88.0647 83.1637ZM58 0C90.0326 0 116 25.9633 116 58C116 90.0326 90.0326 116 58 116C25.9633 116 0 90.0326 0 58C0 25.9633 25.9633 0 58 0Z" fill="#D4F0FA"/>
</svg>
